<svg width="150" height="80" viewBox="0 0 150 80" fill="none" xmlns="http://www.w3.org/2000/svg">
<path d="M52.7112 61.7691L48.1338 51.8154L54.4875 49.5903L58.2342 53.9421L58.3268 48.2457L64.1029 46.2229L66.9814 56.7715L63.4988 57.9912L60.6664 52.0986L60.5428 59.0264L57.7907 59.9902L53.2256 54.7045L54.9367 60.9897L52.7112 61.7691ZM73.5704 54.6547C71.4299 55.4043 69.8326 54.33 68.7786 51.4317C68.4956 50.6535 68.1604 49.3279 67.7729 47.4549L71.0686 46.3007L72.3974 49.9546C72.8732 51.2627 73.4791 51.7879 74.2153 51.5301C74.8608 51.304 74.9703 50.6046 74.5438 49.4317C74.511 49.3415 74.4762 49.2456 74.4392 49.1441L72.9883 45.6284L76.8107 44.2897L79.3699 52.4329L76.4989 53.4384L75.746 51.9476C75.7398 52.0006 75.734 52.0725 75.7287 52.1634C75.7235 52.2542 75.6785 52.4289 75.5937 52.6874C75.5162 52.9307 75.4099 53.165 75.2748 53.3903C75.1356 53.6044 74.9186 53.8329 74.624 54.0759C74.3293 54.319 73.9781 54.5119 73.5704 54.6547ZM88.729 46.2947C88.9628 46.9375 88.9424 47.5485 88.6679 48.1278C88.3934 48.707 88.0017 49.1748 87.4928 49.531C86.9912 49.8719 86.4799 50.1336 85.9589 50.3161C85.4379 50.4985 84.9669 50.6253 84.5459 50.6965C84.1363 50.7637 83.7791 50.7998 83.4745 50.8047C82.9064 50.7875 82.4444 50.7459 82.0884 50.6799L81.8986 50.6319L82.0863 48.8308C82.9053 48.9762 83.5469 48.9677 84.0113 48.805C84.4756 48.6424 84.6381 48.3694 84.4987 47.986C84.4289 47.7942 84.2099 47.6485 83.8417 47.5486C83.4734 47.4487 83.0809 47.37 82.6642 47.3126C82.2588 47.2511 81.8412 47.0859 81.4114 46.8168C80.9816 46.5478 80.6785 46.1708 80.5021 45.6859C80.1864 44.8175 80.2769 44.0484 80.7739 43.3786C81.2708 42.7087 82.0572 42.1854 83.1332 41.8085C83.6768 41.6182 84.2255 41.4769 84.7793 41.3846C85.3331 41.2924 85.7566 41.2458 86.0499 41.2448L86.479 41.2661L86.6756 43.1234C85.9439 43.1126 85.3516 43.1866 84.8986 43.3453C84.4455 43.5039 84.2826 43.758 84.4097 44.1076C84.4713 44.2768 84.6383 44.4026 84.9109 44.4852C85.1794 44.5564 85.4932 44.6118 85.8523 44.6513C86.2114 44.6908 86.5787 44.7529 86.9543 44.8375C87.3257 44.9109 87.6784 45.0734 88.0125 45.3251C88.3426 45.5655 88.5814 45.8887 88.729 46.2947ZM93.3329 38.7704L93.5848 38.5678L95.8739 46.653L92.6631 47.7775L89.2528 40.0849C89.9926 40.1182 90.725 40.008 91.4498 39.7541C92.186 39.4963 92.8137 39.1684 93.3329 38.7704ZM91.2811 38.9741C90.7148 39.1724 90.1776 39.1699 89.6695 38.9664C89.1614 38.7629 88.8089 38.3905 88.6121 37.8492C88.4111 37.2966 88.438 36.7914 88.6929 36.3334C88.9549 35.8602 89.369 35.5245 89.9353 35.3262C90.5129 35.1239 91.0558 35.1245 91.5639 35.3279C92.072 35.5314 92.4245 35.9038 92.6213 36.4451C92.8182 36.9864 92.7856 37.4937 92.5236 37.9669C92.2615 38.44 91.8474 38.7758 91.2811 38.9741ZM106.374 41.6408C105.853 42.8405 104.879 43.6902 103.452 44.1899C102.036 44.6857 100.8 44.6927 99.7437 44.2108C98.6833 43.7176 97.9009 42.7774 97.3965 41.3903C96.892 40.0032 96.9399 38.8358 97.5401 37.8882C98.1363 36.9293 99.0629 36.2298 100.32 35.7895C100.852 35.6031 101.38 35.4753 101.904 35.4063C102.44 35.3333 102.841 35.3135 103.108 35.3469L103.504 35.3802L103.763 37.2534C103.25 37.2807 102.744 37.3816 102.246 37.5561C101.759 37.7267 101.369 38.0412 101.076 38.4998C100.79 38.9431 100.764 39.4862 100.998 40.129C101.523 41.5725 102.346 42.0979 103.467 41.7053C103.762 41.6021 104.033 41.4691 104.28 41.3063C104.523 41.1321 104.692 40.9838 104.788 40.8612L104.938 40.6943L106.374 41.6408Z" fill="#780000"/>
<path d="M2.65778 37.4513C3.67749 35.62 5.09476 34.0406 6.80535 32.8293L10.4282 30.2637C13.5322 28.0656 17.7321 28.254 20.6268 30.7212V30.7212C22.7235 32.5082 25.5691 33.1407 28.2254 32.4101L29.1672 32.151V32.151C29.1672 37.1269 31.8585 41.7135 36.2023 44.1405L37.5808 44.9108L35.9596 49.3155C35.8262 49.678 35.7579 50.0612 35.7579 50.4475V50.4475C35.7579 52.2576 37.2252 53.725 39.0353 53.725H41.9278V53.725C42.5879 55.1618 41.3819 56.7549 39.8199 56.5096L34.9165 55.7397L29.1672 54.2287L19.6318 64.1343V64.1343C14.6733 70.6577 4.39288 68.7043 2.17277 60.8167L1.12182 57.0828L0 49.8635L0.78017 43.1498C1.00573 41.2088 1.61108 39.3311 2.56171 37.6239L2.65778 37.4513Z" fill="#780000"/>
<path d="M32.2522 36.3484C30.9682 33.1841 31.5496 29.5684 33.7609 26.9661L34.7763 25.7713L35.92 24.7117C38.8904 21.9597 43.0264 20.8487 46.976 21.7419V21.7419L42.2938 25.7906C41.26 26.6846 40.6658 28.0029 40.6658 29.3696V29.3696C40.6658 31.3644 41.9411 33.1654 43.8327 33.7982V33.7982C44.8668 34.1441 45.9896 34.1147 47.0041 33.7152L50.7621 32.2351V40.042L43.4704 41.553L41.3667 41.7764C37.4604 42.1913 33.7483 39.9807 32.2522 36.3484V36.3484V36.3484Z" fill="white"/>
<path d="M53.2862 30.892L56.3712 29.6328L56.7919 31.8993L58.6148 28.7094L61.8401 27.1984V35.9287L59.4562 36.6003L59.0355 33.7461L56.7919 37.6915L53.5667 38.531L53.2862 30.892Z" fill="white"/>
<path fill-rule="evenodd" clip-rule="evenodd" d="M71.7962 22.4134L65.486 25.3515V36.5163L67.7296 35.8447L69.4123 35.425V33.2424L72.6375 32.235L74.0398 31.4795L74.8812 30.1364V23.7565L73.7593 22.4134H71.7962ZM71.3981 27.6148C71.3275 26.7061 70.2823 26.2325 69.5525 26.7786V26.7786C69.5525 27.7859 69.2721 27.702 69.5525 29.0451C69.7341 29.9148 69.6928 29.7167 70.3939 29.9685L70.8422 29.6331C71.2616 29.3192 71.4911 28.8126 71.4506 28.2904L71.3981 27.6148Z" fill="white"/>
<path d="M78.2466 19.6432L88.0625 15.2781L88.3429 19.1396L82.3132 21.7419V22.4134L85.3982 21.1543V23.5047L82.3132 24.68V25.5194L88.3429 23.3368L88.6234 27.2823L78.2466 30.4722V19.6432Z" fill="white"/>
<path d="M92.1291 13.3473L96.4761 11.5845V16.0336L99.5611 14.7744L99.7013 10.0734L103.628 8.39453L104.329 21.6579L100.402 22.8331L100.122 18.8877L96.8968 20.0629V24.1763L92.4095 25.8552L92.1291 13.3473Z" fill="white"/>
<path fill-rule="evenodd" clip-rule="evenodd" d="M121.717 4.53305L111.761 0V0C112.328 2.42398 111.064 4.90343 108.769 5.86869L107.554 6.37985L107.975 20.1469L112.742 18.7198V14.1028L116.248 12.7597L116.529 17.2928L116.9 17.1965C126.071 14.8211 135.788 15.8082 144.293 19.979V19.979V19.979C143.952 15.528 141.05 11.6834 136.863 10.1348L121.717 4.53305ZM113.023 10.0735C112.927 10.0735 112.882 9.9537 112.956 9.89117L114.414 8.64382C114.606 8.47993 114.756 8.27332 114.853 8.04063L115.968 5.37251V5.37251C116.091 5.29858 116.248 5.38754 116.248 5.53148V9.06611L113.023 10.0735V10.0735ZM121.035 6.25477C120.506 6.00159 119.894 6.38665 119.894 6.97282V6.97282C119.894 7.18436 119.978 7.38722 120.128 7.53664L120.683 8.09002C120.718 8.12501 120.757 8.15557 120.799 8.18102V8.18102C121.203 8.42291 121.717 8.13182 121.717 7.66088V7.4596C121.717 7.35657 121.695 7.25473 121.652 7.16097L121.416 6.64323C121.339 6.47308 121.204 6.33553 121.035 6.25477V6.25477ZM126.169 10.3253C125.94 10.3253 125.739 10.1747 125.674 9.95542L125.371 8.92562C125.218 8.40829 125.78 7.97298 126.243 8.25V8.25C126.396 8.34146 126.5 8.49681 126.525 8.67302L126.679 9.73549C126.725 10.0465 126.483 10.3253 126.169 10.3253V10.3253ZM131.056 10.1217C130.708 10.0957 130.411 10.3711 130.411 10.7202V11.511C130.411 11.8069 130.597 12.0709 130.875 12.1709V12.1709C131.028 12.2259 131.196 12.2259 131.349 12.1709L131.813 12.0042L131.605 10.6301C131.563 10.3535 131.335 10.1426 131.056 10.1217V10.1217ZM134.698 12.6703C134.574 12.4382 134.655 12.1501 134.88 12.0151V12.0151C135.059 11.9079 135.286 11.9248 135.447 12.0575L135.968 12.486C136.179 12.6593 136.301 12.9177 136.301 13.1904V13.2615C136.301 13.7261 135.924 14.1028 135.459 14.1028V14.1028L134.698 12.6703Z" fill="#780000"/>
</svg>
