<svg width="154" height="80" viewBox="0 0 154 80" fill="none" xmlns="http://www.w3.org/2000/svg">
<g filter="url(#filter0_d_30_7)">
<path d="M56.7112 61.7691L52.1338 51.8154L58.4875 49.5903L62.2342 53.9421L62.3268 48.2457L68.1029 46.2229L70.9814 56.7715L67.4988 57.9912L64.6664 52.0986L64.5428 59.0264L61.7907 59.9902L57.2256 54.7045L58.9367 60.9897L56.7112 61.7691ZM77.5704 54.6547C75.4299 55.4043 73.8326 54.33 72.7786 51.4317C72.4956 50.6535 72.1604 49.3279 71.7729 47.4549L75.0686 46.3007L76.3974 49.9546C76.8732 51.2627 77.4791 51.7879 78.2153 51.5301C78.8608 51.304 78.9703 50.6046 78.5438 49.4317C78.511 49.3415 78.4762 49.2456 78.4392 49.1441L76.9883 45.6284L80.8107 44.2897L83.3699 52.4329L80.4989 53.4384L79.746 51.9476C79.7398 52.0006 79.734 52.0725 79.7287 52.1634C79.7235 52.2542 79.6785 52.4289 79.5937 52.6874C79.5162 52.9307 79.4099 53.165 79.2748 53.3903C79.1356 53.6044 78.9186 53.8329 78.624 54.0759C78.3293 54.319 77.9781 54.5119 77.5704 54.6547ZM92.729 46.2947C92.9628 46.9375 92.9424 47.5485 92.6679 48.1278C92.3934 48.707 92.0017 49.1748 91.4928 49.531C90.9912 49.8719 90.4799 50.1336 89.9589 50.3161C89.4379 50.4985 88.9669 50.6253 88.5459 50.6965C88.1363 50.7637 87.7791 50.7998 87.4745 50.8047C86.9064 50.7875 86.4444 50.7459 86.0884 50.6799L85.8986 50.6319L86.0863 48.8308C86.9053 48.9762 87.5469 48.9677 88.0113 48.805C88.4756 48.6424 88.6381 48.3694 88.4987 47.986C88.4289 47.7942 88.2099 47.6485 87.8417 47.5486C87.4734 47.4487 87.0809 47.37 86.6642 47.3126C86.2588 47.2511 85.8412 47.0859 85.4114 46.8168C84.9816 46.5478 84.6785 46.1708 84.5021 45.6859C84.1864 44.8175 84.2769 44.0484 84.7739 43.3786C85.2708 42.7087 86.0572 42.1854 87.1332 41.8085C87.6768 41.6182 88.2255 41.4769 88.7793 41.3846C89.3331 41.2924 89.7566 41.2458 90.0499 41.2448L90.479 41.2661L90.6756 43.1234C89.9439 43.1126 89.3516 43.1866 88.8986 43.3453C88.4455 43.5039 88.2826 43.758 88.4097 44.1076C88.4713 44.2768 88.6383 44.4026 88.9109 44.4852C89.1794 44.5564 89.4932 44.6118 89.8523 44.6513C90.2114 44.6908 90.5787 44.7529 90.9543 44.8375C91.3257 44.9109 91.6784 45.0734 92.0125 45.3251C92.3426 45.5655 92.5814 45.8887 92.729 46.2947ZM97.3329 38.7704L97.5848 38.5678L99.8739 46.653L96.6631 47.7775L93.2528 40.0849C93.9926 40.1182 94.725 40.008 95.4498 39.7541C96.186 39.4963 96.8137 39.1684 97.3329 38.7704ZM95.2811 38.9741C94.7148 39.1724 94.1776 39.1699 93.6695 38.9664C93.1614 38.7629 92.8089 38.3905 92.6121 37.8492C92.4111 37.2966 92.438 36.7914 92.6929 36.3334C92.9549 35.8602 93.369 35.5245 93.9353 35.3262C94.5129 35.1239 95.0558 35.1245 95.5639 35.3279C96.072 35.5314 96.4245 35.9038 96.6213 36.4451C96.8182 36.9864 96.7856 37.4937 96.5236 37.9669C96.2615 38.44 95.8474 38.7758 95.2811 38.9741ZM110.374 41.6408C109.853 42.8405 108.879 43.6902 107.452 44.1899C106.036 44.6857 104.8 44.6927 103.744 44.2108C102.683 43.7176 101.901 42.7774 101.396 41.3903C100.892 40.0032 100.94 38.8358 101.54 37.8882C102.136 36.9293 103.063 36.2298 104.32 35.7895C104.852 35.6031 105.38 35.4753 105.904 35.4063C106.44 35.3333 106.841 35.3135 107.108 35.3469L107.504 35.3802L107.763 37.2534C107.25 37.2807 106.744 37.3816 106.246 37.5561C105.759 37.7267 105.369 38.0412 105.076 38.4998C104.79 38.9431 104.764 39.4862 104.998 40.129C105.523 41.5725 106.346 42.0979 107.467 41.7053C107.762 41.6021 108.033 41.4691 108.28 41.3063C108.523 41.1321 108.692 40.9838 108.788 40.8612L108.938 40.6943L110.374 41.6408Z" fill="#780000"/>
<path d="M6.65778 37.4513C7.67749 35.62 9.09476 34.0406 10.8053 32.8293L14.4282 30.2637C17.5322 28.0656 21.7321 28.254 24.6268 30.7212V30.7212C26.7235 32.5082 29.5691 33.1407 32.2254 32.4101L33.1672 32.151V32.151C33.1672 37.1269 35.8585 41.7135 40.2023 44.1405L41.5808 44.9108L39.9596 49.3155C39.8262 49.678 39.7579 50.0612 39.7579 50.4475V50.4475C39.7579 52.2576 41.2252 53.725 43.0353 53.725H45.9278V53.725C46.5879 55.1618 45.3819 56.7549 43.8199 56.5096L38.9165 55.7397L33.1672 54.2287L23.6318 64.1343V64.1343C18.6733 70.6577 8.39288 68.7043 6.17277 60.8167L5.12182 57.0828L4 49.8635L4.78017 43.1498C5.00573 41.2088 5.61108 39.3311 6.56171 37.6239L6.65778 37.4513Z" fill="#780000"/>
<path d="M36.2522 36.3484C34.9682 33.1841 35.5496 29.5684 37.7609 26.9661L38.7763 25.7713L39.92 24.7117C42.8904 21.9597 47.0264 20.8487 50.976 21.7419V21.7419L46.2938 25.7906C45.26 26.6846 44.6658 28.0029 44.6658 29.3696V29.3696C44.6658 31.3644 45.9411 33.1654 47.8327 33.7982V33.7982C48.8668 34.1441 49.9896 34.1147 51.0041 33.7152L54.7621 32.2351V40.042L47.4704 41.553L45.3667 41.7764C41.4604 42.1913 37.7483 39.9807 36.2522 36.3484V36.3484V36.3484Z" fill="white"/>
<path d="M57.2862 30.892L60.3712 29.6328L60.7919 31.8993L62.6148 28.7094L65.8401 27.1984V35.9287L63.4562 36.6003L63.0355 33.7461L60.7919 37.6915L57.5667 38.531L57.2862 30.892Z" fill="white"/>
<path fill-rule="evenodd" clip-rule="evenodd" d="M75.7962 22.4134L69.486 25.3515V36.5163L71.7296 35.8447L73.4123 35.425V33.2424L76.6375 32.235L78.0398 31.4795L78.8812 30.1364V23.7565L77.7593 22.4134H75.7962ZM75.3981 27.6148C75.3275 26.7061 74.2823 26.2325 73.5525 26.7786V26.7786C73.5525 27.7859 73.2721 27.702 73.5525 29.0451C73.7341 29.9148 73.6928 29.7167 74.3939 29.9685L74.8422 29.6331C75.2616 29.3192 75.4911 28.8126 75.4506 28.2904L75.3981 27.6148Z" fill="white"/>
<path d="M82.2466 19.6432L92.0625 15.2781L92.3429 19.1396L86.3132 21.7419V22.4134L89.3982 21.1543V23.5047L86.3132 24.68V25.5194L92.3429 23.3368L92.6234 27.2823L82.2466 30.4722V19.6432Z" fill="white"/>
<path d="M96.1291 13.3473L100.476 11.5845V16.0336L103.561 14.7744L103.701 10.0734L107.628 8.39453L108.329 21.6579L104.402 22.8331L104.122 18.8877L100.897 20.0629V24.1763L96.4095 25.8552L96.1291 13.3473Z" fill="white"/>
<path fill-rule="evenodd" clip-rule="evenodd" d="M125.717 4.53305L115.761 0V0C116.328 2.42398 115.064 4.90343 112.769 5.86869L111.554 6.37985L111.975 20.1469L116.742 18.7198V14.1028L120.248 12.7597L120.529 17.2928L120.9 17.1965C130.071 14.8211 139.788 15.8082 148.293 19.979V19.979V19.979C147.952 15.528 145.05 11.6834 140.863 10.1348L125.717 4.53305ZM117.023 10.0735C116.927 10.0735 116.882 9.9537 116.956 9.89117L118.414 8.64382C118.606 8.47993 118.756 8.27332 118.853 8.04063L119.968 5.37251V5.37251C120.091 5.29858 120.248 5.38754 120.248 5.53148V9.06611L117.023 10.0735V10.0735ZM125.035 6.25477C124.506 6.00159 123.894 6.38665 123.894 6.97282V6.97282C123.894 7.18436 123.978 7.38722 124.128 7.53664L124.683 8.09002C124.718 8.12501 124.757 8.15557 124.799 8.18102V8.18102C125.203 8.42291 125.717 8.13182 125.717 7.66088V7.4596C125.717 7.35657 125.695 7.25473 125.652 7.16097L125.416 6.64323C125.339 6.47308 125.204 6.33553 125.035 6.25477V6.25477ZM130.169 10.3253C129.94 10.3253 129.739 10.1747 129.674 9.95542L129.371 8.92562C129.218 8.40829 129.78 7.97298 130.243 8.25V8.25C130.396 8.34146 130.5 8.49681 130.525 8.67302L130.679 9.73549C130.725 10.0465 130.483 10.3253 130.169 10.3253V10.3253ZM135.056 10.1217C134.708 10.0957 134.411 10.3711 134.411 10.7202V11.511C134.411 11.8069 134.597 12.0709 134.875 12.1709V12.1709C135.028 12.2259 135.196 12.2259 135.349 12.1709L135.813 12.0042L135.605 10.6301C135.563 10.3535 135.335 10.1426 135.056 10.1217V10.1217ZM138.698 12.6703C138.574 12.4382 138.655 12.1501 138.88 12.0151V12.0151C139.059 11.9079 139.286 11.9248 139.447 12.0575L139.968 12.486C140.179 12.6593 140.301 12.9177 140.301 13.1904V13.2615C140.301 13.7261 139.924 14.1028 139.459 14.1028V14.1028L138.698 12.6703Z" fill="#780000"/>
</g>
<defs>
<filter id="filter0_d_30_7" x="0" y="0" width="152.293" height="76.0585" filterUnits="userSpaceOnUse" color-interpolation-filters="sRGB">
<feFlood flood-opacity="0" result="BackgroundImageFix"/>
<feColorMatrix in="SourceAlpha" type="matrix" values="0 0 0 0 0 0 0 0 0 0 0 0 0 0 0 0 0 0 127 0" result="hardAlpha"/>
<feOffset dy="4"/>
<feGaussianBlur stdDeviation="2"/>
<feComposite in2="hardAlpha" operator="out"/>
<feColorMatrix type="matrix" values="0 0 0 0 0 0 0 0 0 0 0 0 0 0 0 0 0 0 0.25 0"/>
<feBlend mode="normal" in2="BackgroundImageFix" result="effect1_dropShadow_30_7"/>
<feBlend mode="normal" in="SourceGraphic" in2="effect1_dropShadow_30_7" result="shape"/>
</filter>
</defs>
</svg>
