<svg width="174" height="90" viewBox="0 0 174 90" fill="none" xmlns="http://www.w3.org/2000/svg">
<path d="M61.8469 70.6815L55.6042 57.4493L64.1033 54.5626L69.1739 60.3646L69.2392 52.8182L76.9657 50.194L80.9359 64.198L76.2773 65.7802L72.4172 57.9457L72.3231 67.1233L68.6417 68.3736L62.4636 61.3264L64.8239 69.6703L61.8469 70.6815ZM89.7519 61.457C86.8885 62.4295 84.735 60.9907 83.2912 57.1405C82.9036 56.1067 82.4402 54.3472 81.9011 51.8618L86.3097 50.3644L88.1299 55.2184C88.7815 56.9562 89.5997 57.6579 90.5845 57.3234C91.448 57.0301 91.5877 56.1044 91.0034 54.5464C90.9585 54.4265 90.9107 54.2992 90.8602 54.1643L88.8777 49.4922L93.9908 47.7556L97.5077 58.5694L93.6672 59.8738L92.642 57.8913C92.6342 57.9615 92.6272 58.0568 92.6211 58.1771C92.6149 58.2974 92.5564 58.5284 92.4454 58.8701C92.344 59.1917 92.2038 59.5011 92.0249 59.7983C91.8404 60.0805 91.5517 60.3812 91.159 60.7004C90.7663 61.0195 90.2973 61.2717 89.7519 61.457ZM109.998 50.5271C110.318 51.3811 110.297 52.1904 109.935 52.9553C109.572 53.7201 109.052 54.336 108.373 54.803C107.704 55.2499 107.021 55.5917 106.324 55.8284C105.627 56.0651 104.996 56.2286 104.432 56.3188C103.884 56.4039 103.405 56.4482 102.996 56.4519C102.234 56.4236 101.614 56.364 101.136 56.273L100.881 56.2077L101.114 53.8231C102.214 54.0237 103.075 54.0186 103.696 53.8076C104.317 53.5966 104.532 53.2365 104.341 52.7271C104.245 52.4724 103.95 52.2771 103.455 52.1412C102.96 52.0054 102.433 51.8973 101.873 51.8171C101.329 51.7318 100.767 51.5088 100.188 51.1482C99.6086 50.7876 99.1982 50.2852 98.9566 49.641C98.524 48.4875 98.6376 47.4693 99.2972 46.5866C99.9568 45.7039 101.006 45.0181 102.445 44.5293C103.173 44.2823 103.907 44.1004 104.649 43.9835C105.391 43.8667 105.958 43.809 106.352 43.8105L106.928 43.8429L107.211 46.3056C106.229 46.2843 105.435 46.3765 104.829 46.5824C104.223 46.7882 104.007 47.1233 104.182 47.5877C104.266 47.8125 104.491 47.9808 104.858 48.0928C105.219 48.1898 105.64 48.2662 106.122 48.322C106.604 48.3778 107.098 48.4636 107.602 48.5794C108.101 48.6801 108.576 48.8989 109.027 49.2356C109.472 49.5573 109.795 49.9878 109.998 50.5271ZM116.095 40.6026L116.431 40.3366L119.585 51.071L115.29 52.5298L110.636 42.3048C111.629 42.3561 112.61 42.217 113.579 41.8877C114.564 41.5532 115.403 41.1249 116.095 40.6026ZM113.345 40.8526C112.588 41.1099 111.867 41.1013 111.183 40.8268C110.5 40.5523 110.023 40.0555 109.753 39.3364C109.478 38.6023 109.509 37.9332 109.846 37.3289C110.193 36.7045 110.745 36.2637 111.502 36.0064C112.275 35.7439 113.003 35.75 113.687 36.0245C114.37 36.299 114.847 36.7958 115.117 37.5149C115.386 38.234 115.348 38.9057 115.001 39.5301C114.655 40.1545 114.103 40.5953 113.345 40.8526ZM133.617 44.5317C132.93 46.1161 131.632 47.2325 129.723 47.8808C127.83 48.524 126.172 48.5213 124.75 47.8726C123.323 47.2089 122.264 45.9557 121.573 44.113C120.882 42.2703 120.934 40.7241 121.729 39.4744C122.519 38.2097 123.754 37.2918 125.436 36.7206C126.148 36.4788 126.855 36.3146 127.557 36.2282C128.274 36.1366 128.812 36.1143 129.172 36.1612L129.702 36.2091L130.07 38.6935C129.381 38.7247 128.704 38.8535 128.037 39.0799C127.386 39.3012 126.866 39.7142 126.478 40.3189C126.099 40.9035 126.07 41.6227 126.39 42.4767C127.109 44.3943 128.219 45.0984 129.719 44.589C130.113 44.4552 130.475 44.2816 130.804 44.0682C131.129 43.8399 131.354 43.6449 131.482 43.4835L131.681 43.2637L133.617 44.5317Z" fill="#780000"/>
<path d="M3.00084 42.2759C4.23058 40.1341 5.93694 38.2772 7.97284 36.879L12.1196 34.0311C15.7294 31.5519 20.5455 31.7662 23.9208 34.5562V34.5562C26.3646 36.5762 29.6341 37.2903 32.6975 36.4731L33.834 36.17V36.17C33.834 41.7563 36.8934 46.8939 41.805 49.5554L43.5937 50.5246L41.718 55.4671C41.5601 55.8833 41.4791 56.3246 41.4791 56.7697V56.7697C41.4791 58.7971 43.1227 60.4407 45.1501 60.4407H48.6363V60.4407C49.3985 62.0498 48.0535 63.857 46.2934 63.589L40.5031 62.7072L33.834 61.0073L22.7729 72.1511V72.1511C16.9304 79.6056 5.10287 77.3169 2.46301 68.221L1.30131 64.2182L0 56.0965L0.897562 48.6056C1.16399 46.3821 1.8858 44.2181 3.00084 42.2759V42.2759Z" fill="#780000"/>
<path d="M37.4125 40.8919C35.9295 37.3474 36.5946 33.2677 39.1268 30.3778L40.3405 28.9927L41.5981 27.8627C45.0975 24.7184 49.8969 23.4517 54.4922 24.4596V24.4596L49.0392 29.0325C47.8558 30.0249 47.1723 31.4902 47.1723 33.0346V33.0346C47.1723 35.2982 48.6304 37.3041 50.7835 38.0027L50.8952 38.0389C52.065 38.4184 53.3294 38.3861 54.4782 37.9473L58.8841 36.2644V45.0472L50.4256 46.7471L47.7911 47.0185C43.362 47.4747 39.1531 44.9901 37.4125 40.8919V40.8919V40.8919Z" fill="white"/>
<path d="M61.812 34.7534L65.3906 33.3368L65.8786 35.8867L67.9932 32.298L71.7345 30.5981V40.4197L68.9692 41.1752L68.4812 37.9643L65.8786 42.4029L62.1373 43.3473L61.812 34.7534Z" fill="white"/>
<path fill-rule="evenodd" clip-rule="evenodd" d="M83.2836 25.2151L75.9637 28.5205V41.0808L78.5663 40.3253L80.5183 39.8531V37.3977L84.2595 36.2644L85.8862 35.4145L86.8621 33.9035V26.7261L85.5608 25.2151H83.2836ZM82.8255 31.1135C82.7411 30.0601 81.5362 29.5052 80.6809 30.1259V30.1259C80.6809 31.2592 80.3556 31.1648 80.6809 32.6758C80.8916 33.6541 80.8436 33.4313 81.6569 33.7146L82.1683 33.3435C82.6589 32.9874 82.9287 32.4016 82.8803 31.7973L82.8255 31.1135Z" fill="white"/>
<path d="M90.7661 22.0986L102.152 17.1878L102.478 21.532L95.4833 24.4596V25.2151L99.0619 23.7985V26.4428L95.4833 27.765V28.7093L102.478 26.2539L102.803 30.6926L90.7661 34.2812V22.0986Z" fill="white"/>
<path d="M106.87 15.0157L111.912 13.0325V18.0378L115.491 16.6212L115.654 11.3326L120.208 9.44385L121.021 24.3651L116.467 25.6873L116.142 21.2487L112.4 22.5708V27.1983L107.195 29.0871L106.87 15.0157Z" fill="white"/>
<path fill-rule="evenodd" clip-rule="evenodd" d="M141.192 5.09968L129.643 0V0C130.297 2.71532 128.87 5.50165 126.284 6.55675L124.763 7.17733L125.251 22.6653L130.781 21.0598V15.8657L134.848 14.3547L135.173 19.4544L135.669 19.3298C146.284 16.6632 157.496 17.7757 167.38 22.4764V22.4764V22.4764C166.984 17.4755 163.694 13.1712 158.972 11.4775L141.192 5.09968ZM131.107 11.3326C130.997 11.3326 130.947 11.1951 131.032 11.1249L132.725 9.72087C132.944 9.53879 133.117 9.30729 133.23 9.04533L134.522 6.04407V6.04407C134.667 5.96024 134.848 6.06442 134.848 6.23137V10.1994L131.107 11.3326V11.3326ZM140.358 7.01675C139.761 6.73929 139.077 7.17547 139.077 7.83414V7.83414C139.077 8.0783 139.176 8.31202 139.352 8.48181L139.991 9.10043C140.032 9.14036 140.078 9.17512 140.128 9.20395V9.20395C140.6 9.47809 141.192 9.13742 141.192 8.59144V8.39896C141.192 8.27857 141.165 8.15967 141.114 8.0507L140.847 7.4828C140.754 7.28546 140.595 7.12701 140.398 7.03517L140.358 7.01675ZM146.353 11.6159C146.089 11.6159 145.856 11.4436 145.78 11.1914L145.439 10.0698C145.258 9.47489 145.9 8.96647 146.438 9.27865V9.27865C146.617 9.38307 146.74 9.5636 146.771 9.76928L146.945 10.9287C146.999 11.2906 146.718 11.6159 146.353 11.6159V11.6159ZM152.025 11.3869C151.621 11.3576 151.277 11.6776 151.277 12.0828V12.9268C151.277 13.2728 151.496 13.581 151.823 13.6948V13.6948C151.996 13.7552 152.184 13.7552 152.358 13.6948L152.903 13.5047L152.664 11.9749C152.614 11.6542 152.349 11.4104 152.025 11.3869V11.3869ZM156.26 14.2729C156.112 14.0032 156.206 13.6648 156.472 13.5104V13.5104C156.674 13.3931 156.928 13.4119 157.11 13.5576L157.725 14.0484C157.967 14.2419 158.109 14.5353 158.109 14.8456V14.8897C158.109 15.4287 157.672 15.8657 157.133 15.8657V15.8657L156.26 14.2729Z" fill="#780000"/>
</svg>
