<svg width="184" height="100" viewBox="0 0 184 100" fill="none" xmlns="http://www.w3.org/2000/svg">
<path d="M65.0481 77.8833L59.0295 64.5888L67.4833 61.5718L72.4333 67.3736L72.5917 59.7488L80.277 57.0061L84.0352 71.1073L79.4014 72.7609L75.6756 64.8914L75.4684 74.1645L71.8066 75.4714L65.7752 68.4246L68.0092 76.8266L65.0481 77.8833ZM92.801 68.2338C89.9529 69.2502 87.8378 67.822 86.4557 63.9493C86.0847 62.9095 85.6476 61.1373 85.1445 58.6327L89.5296 57.0677L91.272 61.9501C91.8958 63.6982 92.6975 64.3974 93.677 64.0478C94.5359 63.7413 94.6858 62.8044 94.1265 61.2373C94.0835 61.1167 94.0377 60.9886 93.9893 60.853L92.0838 56.1562L97.1697 54.3412L100.519 65.2248L96.6986 66.588L95.7078 64.5972C95.6992 64.6683 95.6911 64.7646 95.6835 64.8862C95.676 65.0078 95.6151 65.2419 95.5009 65.5884C95.3964 65.9145 95.2538 66.2288 95.0729 66.5311C94.8866 66.8185 94.597 67.1257 94.2041 67.4528C93.8112 67.7799 93.3435 68.0402 92.801 68.2338ZM112.989 56.952C113.296 57.8109 113.265 58.6289 112.897 59.4059C112.528 60.1828 112.005 60.8113 111.327 61.2911C110.658 61.7505 109.978 62.1039 109.284 62.3513C108.591 62.5987 107.965 62.7713 107.405 62.8691C106.86 62.9615 106.386 63.012 105.981 63.0205C105.227 63.0009 104.613 62.9481 104.141 62.8618L103.889 62.7988L104.149 60.387C105.236 60.5766 106.089 60.5612 106.707 60.3407C107.325 60.1203 107.542 59.7538 107.359 59.2415C107.268 58.9853 106.978 58.7915 106.489 58.6601C106.001 58.5287 105.48 58.4258 104.926 58.3514C104.388 58.2716 103.835 58.053 103.265 57.6955C102.696 57.3381 102.296 56.8353 102.065 56.1874C101.651 55.027 101.776 53.9971 102.44 53.0975C103.104 52.1979 104.152 51.4926 105.584 50.9817C106.307 50.7236 107.037 50.5311 107.773 50.4043C108.509 50.2774 109.072 50.2125 109.462 50.2093L110.032 50.2353L110.281 52.7199C109.309 52.71 108.522 52.8126 107.919 53.0277C107.316 53.2428 107.098 53.584 107.265 54.0511C107.346 54.2772 107.567 54.4446 107.929 54.5534C108.285 54.6471 108.701 54.7193 109.178 54.77C109.655 54.8207 110.142 54.9015 110.641 55.0125C111.134 55.1084 111.601 55.3238 112.043 55.6586C112.48 55.9784 112.796 56.4095 112.989 56.952ZM119.152 46.8532L119.487 46.5804L122.478 57.388L118.206 58.9126L113.723 48.6374C114.706 48.6775 115.68 48.5254 116.644 48.1813C117.624 47.8317 118.459 47.389 119.152 46.8532ZM116.425 47.1383C115.671 47.4072 114.958 47.407 114.284 47.1378C113.61 46.8686 113.144 46.3723 112.886 45.649C112.623 44.9106 112.662 44.2341 113.003 43.6197C113.354 42.9847 113.906 42.5328 114.66 42.264C115.428 41.9897 116.149 41.9872 116.823 42.2564C117.497 42.5256 117.963 43.0219 118.221 43.7452C118.479 44.4685 118.432 45.1477 118.081 45.7826C117.73 46.4175 117.178 46.8694 116.425 47.1383ZM136.457 50.6154C135.757 52.2243 134.458 53.3675 132.559 54.0451C130.676 54.7174 129.034 54.7342 127.634 54.0956C126.228 53.442 125.195 52.1884 124.533 50.3349C123.872 48.4814 123.943 46.9187 124.746 45.6467C125.544 44.3597 126.779 43.4177 128.452 42.8207C129.16 42.568 129.862 42.3938 130.558 42.2982C131.27 42.1972 131.803 42.1682 132.158 42.2114L132.683 42.2535L133.017 44.7591C132.334 44.7988 131.662 44.9369 130.999 45.1736C130.351 45.4048 129.831 45.8282 129.439 46.4437C129.056 47.0388 129.019 47.7658 129.325 48.6248C130.014 50.5536 131.104 51.2518 132.595 50.7194C132.987 50.5796 133.348 50.4 133.677 50.1805C134.001 49.9459 134.227 49.7463 134.355 49.5817L134.556 49.3573L136.457 50.6154Z" fill="#780000"/>
<path d="M3.3059 46.7306C4.52673 44.4964 6.23189 42.5636 8.29648 41.0737L12.7768 37.8407C16.578 35.0976 21.7673 35.3314 25.3064 38.4053V38.4053C27.8706 40.6322 31.3824 41.421 34.6526 40.5044L35.7784 40.1889V40.1889C35.7784 46.4165 39.1205 52.1652 44.5324 55.2465L46.0991 56.1385L44.1073 61.6531C43.9456 62.1006 43.863 62.5728 43.863 63.0486V63.0486C43.863 65.3172 45.7021 67.1563 47.9707 67.1563H51.4315V67.1563C52.2433 68.9571 50.7278 70.9383 48.7774 70.6262L42.8309 69.6747L35.7784 67.7859L24.0816 80.1679V80.1679C18.0584 88.2429 5.38348 85.8619 2.70132 76.1515L1.37609 71.3536L0 62.3295L0.96167 53.8965C1.23536 51.4965 1.97171 49.1723 3.12998 47.0526L3.3059 46.7306Z" fill="#780000"/>
<path d="M39.5627 45.4355C37.9836 41.47 38.7027 36.9582 41.4363 33.6801L42.6589 32.2141L44.1074 30.8465C47.7157 27.44 52.7883 26.0629 57.6239 27.1773V27.1773L51.894 32.2263C50.6158 33.3526 49.8834 34.974 49.8834 36.6777V36.8535C49.8834 39.2873 51.432 41.4513 53.7356 42.2366V42.2366C55.0235 42.6757 56.4262 42.6384 57.689 42.1316L62.2682 40.2938V50.0525L53.3236 51.9412L50.873 52.2065C46.013 52.7325 41.3946 49.9676 39.5627 45.4355V45.4355V45.4355Z" fill="white"/>
<path d="M65.3644 38.6149L69.1487 37.0409L69.6647 39.8741L71.9009 35.8867L75.8572 33.9979V44.9108L72.933 45.7503L72.4169 42.1826L69.6647 47.1144L65.7085 48.1637L65.3644 38.6149Z" fill="white"/>
<path fill-rule="evenodd" clip-rule="evenodd" d="M88.07 28.0168L80.3294 31.6894V45.6453L83.0816 44.8059L85.1458 44.2812V41.553L89.102 40.2938L90.8221 39.3494L91.8542 37.6705V29.6957L90.4781 28.0168H88.07ZM87.5793 34.4875C87.4942 33.3724 86.2071 32.7951 85.3178 33.4732V33.4732C85.3178 34.7324 84.9738 34.6275 85.3178 36.3064C85.5405 37.3935 85.4898 37.1459 86.3498 37.4606L86.9058 37.0367C87.4172 36.6467 87.6964 36.0242 87.6475 35.3829L87.5793 34.4875Z" fill="white"/>
<path d="M95.9825 24.554L108.023 19.0976L108.367 23.9245L100.971 27.1773V28.0168L104.755 26.4428V29.3809L100.971 30.85V31.8993L108.367 29.171L108.711 34.1028L95.9825 38.0902V24.554Z" fill="white"/>
<path d="M113.012 16.6841L118.344 14.4806V20.042L122.128 18.468L122.3 12.5918L127.117 10.4932L127.977 27.0724L123.16 28.5414L122.816 23.6096L118.86 25.0787V30.2203L113.356 32.319L113.012 16.6841Z" fill="white"/>
<path fill-rule="evenodd" clip-rule="evenodd" d="M149.306 5.66632L137.093 0V0C137.79 3.03785 136.214 6.13944 133.35 7.36745L131.933 7.97482L132.449 25.1836L138.297 23.3998V17.6285L142.598 15.9496L142.942 21.6159L143.354 21.5071C154.618 18.534 166.579 19.7664 177 24.9738V24.9738V24.9738C176.58 19.4054 172.971 14.5853 167.745 12.6159L149.306 5.66632ZM138.641 12.5918C138.522 12.5918 138.467 12.4441 138.557 12.3658L140.345 10.807C140.582 10.6006 140.768 10.3418 140.887 10.0512L142.254 6.71563V6.71563C142.404 6.62368 142.598 6.73218 142.598 6.90875V11.3326L138.641 12.5918V12.5918ZM148.472 7.81965C147.825 7.50367 147.07 7.97513 147.07 8.6956V8.72304C147.07 8.98325 147.172 9.23303 147.355 9.41854L148.038 10.1131C148.08 10.1565 148.128 10.1944 148.18 10.226V10.226C148.674 10.527 149.306 10.1719 149.306 9.59397V9.31987C149.306 9.19408 149.28 9.06971 149.228 8.95488L148.934 8.29779C148.841 8.08913 148.678 7.9199 148.472 7.81965V7.81965ZM154.77 12.9066C154.488 12.9066 154.241 12.7205 154.162 12.45L153.783 11.1382C153.598 10.5002 154.294 9.96848 154.861 10.3144V10.3144C155.047 10.4276 155.172 10.6179 155.203 10.8331L155.396 12.1851C155.45 12.566 155.154 12.9066 154.77 12.9066V12.9066ZM160.762 12.6521C160.335 12.6196 159.971 12.9572 159.971 13.3853V14.4042C159.971 14.7652 160.196 15.0878 160.535 15.2118V15.2118C160.726 15.2817 160.936 15.2817 161.126 15.2118L161.691 15.0052L161.433 13.2769C161.383 12.9375 161.104 12.6782 160.762 12.6521V12.6521ZM165.223 15.8253C165.074 15.5409 165.172 15.1903 165.446 15.0233V15.0233C165.669 14.8871 165.954 14.9086 166.155 15.0766L166.786 15.6065C167.046 15.824 167.195 16.1451 167.195 16.4836V16.5965C167.195 17.1665 166.733 17.6285 166.163 17.6285V17.6285L165.223 15.8253Z" fill="#780000"/>
</svg>
