<svg width="101" height="60" viewBox="0 0 101 60" fill="none" xmlns="http://www.w3.org/2000/svg">
<path d="M36.2073 46.7585L32.9464 38.9424L37.818 37.0231L40.5688 40.3996L40.7617 35.8633L45.1904 34.1184L47.1487 42.4477L44.4784 43.4997L42.455 38.8755L42.212 44.3927L40.1019 45.2241L36.7498 41.1233L37.9136 46.0862L36.2073 46.7585ZM52.1966 40.6091C50.5554 41.2557 49.3659 40.4378 48.6281 38.1554C48.43 37.5426 48.204 36.4953 47.9501 35.0135L50.4771 34.0179L51.4072 36.8953C51.7402 37.9254 52.189 38.3293 52.7534 38.107C53.2484 37.9119 53.3466 37.3526 53.048 36.429C53.025 36.358 53.0006 36.2825 52.9748 36.2026L51.949 33.438L54.8797 32.2833L56.6473 38.7053L54.446 39.5726L53.9065 38.4035C53.9007 38.4459 53.8947 38.5033 53.8888 38.5757C53.8828 38.6481 53.8449 38.7882 53.775 38.996C53.7109 39.1914 53.6252 39.3804 53.5177 39.5629C53.4074 39.7365 53.2378 39.9235 53.0089 40.1238C52.78 40.3241 52.5092 40.4859 52.1966 40.6091ZM63.8849 33.6011C64.0485 34.1074 64.0199 34.5942 63.799 35.0617C63.5781 35.5292 63.2706 35.9106 62.8767 36.206C62.4885 36.4891 62.0947 36.7093 61.6952 36.8667C61.2958 37.0241 60.9355 37.136 60.6143 37.2025C60.3018 37.2655 60.0299 37.3025 59.7985 37.3136C59.3677 37.3132 59.0178 37.2908 58.749 37.2466L58.6059 37.2128L58.7872 35.7748C59.4058 35.8715 59.8931 35.8497 60.2491 35.7094C60.6052 35.5691 60.7344 35.348 60.6368 35.046C60.588 34.8951 60.4248 34.7841 60.1474 34.7132C59.8699 34.6423 59.5737 34.5889 59.2585 34.5528C58.9521 34.5134 58.6386 34.3916 58.3181 34.1875C57.9976 33.9834 57.7756 33.6904 57.6522 33.3085C57.4311 32.6247 57.5164 32.0103 57.9081 31.4656C58.2998 30.9208 58.9081 30.4859 59.7331 30.1608C60.1499 29.9966 60.5695 29.8714 60.9919 29.785C61.4144 29.6987 61.7369 29.6517 61.9596 29.6441L62.2849 29.651L62.3942 31.1248C61.8389 31.1333 61.3876 31.206 61.0403 31.3428C60.6929 31.4797 60.5638 31.6858 60.6528 31.9611C60.6958 32.0943 60.8199 32.1906 61.0251 32.2499C61.2274 32.3003 61.4645 32.3371 61.7363 32.3602C62.008 32.3833 62.2856 32.4241 62.5688 32.4827C62.8492 32.5324 63.1135 32.6535 63.3618 32.8461C63.6071 33.0297 63.7815 33.2814 63.8849 33.6011ZM67.5421 27.5047L67.7377 27.3375L69.3015 33.7197L66.8397 34.6897L64.4162 28.6462C64.9772 28.6554 65.5355 28.5506 66.0913 28.3316C66.6557 28.1092 67.1393 27.8336 67.5421 27.5047ZM65.98 27.7147C65.5458 27.8857 65.138 27.8962 64.7566 27.7461C64.3753 27.596 64.1157 27.3078 63.9779 26.8815C63.8372 26.4464 63.8685 26.0436 64.0718 25.6731C64.281 25.2904 64.6026 25.0135 65.0368 24.8424C65.4797 24.6679 65.8918 24.6557 66.2732 24.8058C66.6545 24.9559 66.9141 25.2441 67.0519 25.6704C67.1897 26.0967 67.154 26.5012 66.9449 26.8839C66.7358 27.2667 66.4141 27.5436 65.98 27.7147ZM77.381 29.4852C76.9594 30.4523 76.2015 31.1514 75.1074 31.5824C74.0219 32.0101 73.0835 32.0445 72.2919 31.6855C71.4976 31.3177 70.9238 30.5876 70.5707 29.4952C70.2176 28.4029 70.2791 27.4726 70.7552 26.7043C71.2284 25.9272 71.9469 25.3487 72.9108 24.969C73.319 24.8082 73.7226 24.6942 74.1219 24.627C74.5298 24.5564 74.8349 24.5313 75.0373 24.5516L75.3366 24.5689L75.4936 26.0539C75.1031 26.0876 74.7168 26.1797 74.3347 26.3303C73.9613 26.4774 73.6585 26.7368 73.4263 27.1087C73.1999 27.4682 73.1685 27.9011 73.3321 28.4073C73.6996 29.544 74.3131 29.943 75.1728 29.6043C75.3986 29.5154 75.6071 29.4032 75.7983 29.2678C75.9866 29.1235 76.1184 29.0015 76.1939 28.9017L76.3113 28.7653L77.381 29.4852Z" fill="#780000"/>
<path d="M1.92169 27.7858C2.50313 26.6111 3.33599 25.5787 4.36118 24.762L6.89883 22.7403C8.94395 21.1111 11.8789 21.2457 13.7662 23.0554V23.0554C15.136 24.3688 17.1106 24.8356 18.9236 24.2746L19.4448 24.1133V24.1133C19.4448 27.8747 21.3774 31.3722 24.5619 33.3739L25.0539 33.6831L23.9624 37.0192C23.8804 37.27 23.8386 37.5321 23.8386 37.7959V37.7959C23.8386 39.1755 24.9569 40.2938 26.3365 40.2938H27.9519V40.2938C28.3985 41.3875 27.4648 42.5445 26.3015 42.339L23.2777 41.8048L19.4448 40.6716L13.0878 48.1007V48.1007C9.9845 52.6939 2.90808 51.4463 1.56265 46.0688L0.747877 42.8122L0 37.3977L0.534848 32.2198C0.675732 30.8559 1.05935 29.5281 1.66758 28.2992L1.92169 27.7858Z" fill="#780000"/>
<path d="M21.5015 27.2613C20.6326 24.8525 21.0394 22.1679 22.5828 20.1246L23.1842 19.3284L24.1053 18.3684C25.9626 16.4325 28.7174 15.6449 31.3173 16.3064V16.3064L28.2392 19.3007C27.5176 20.0027 27.1105 20.9667 27.1105 21.9734V22.42C27.1105 23.7039 27.9062 24.8535 29.1078 25.3057V25.3057C29.8648 25.5906 30.7034 25.5666 31.4429 25.239L33.8414 24.1763V30.0315L28.9802 31.1647L28.044 31.2766C25.196 31.6169 22.4876 29.9547 21.5015 27.2613V27.2613V27.2613Z" fill="white"/>
<path d="M35.5241 23.1689L37.5808 22.2246L37.8613 23.9245L39.0766 21.532L41.2267 20.3987V26.9465L39.6375 27.4502L39.357 25.3095L37.8613 28.2686L35.7111 28.8982L35.5241 23.1689Z" fill="white"/>
<path fill-rule="evenodd" clip-rule="evenodd" d="M47.8641 16.8101L43.6573 19.0136V27.3872L45.153 26.8835L46.2749 26.5687V24.9318L48.425 24.1763L49.3598 23.6096L49.9208 22.6023V17.8174L49.1729 16.8101H47.8641ZM47.5912 20.6025C47.5492 19.9944 46.8346 19.6914 46.3683 20.0839V20.0839C46.3683 20.8394 46.1814 20.7765 46.3683 21.7838C46.4894 22.4361 46.4618 22.2875 46.9292 22.4764L47.2513 22.2052C47.5189 21.98 47.6629 21.6405 47.6388 21.2915L47.5912 20.6025Z" fill="white"/>
<path d="M52.1644 14.7324L58.7083 11.4586L58.8953 14.3547L54.8755 16.3064V16.8101L56.9321 15.8657V17.6285L54.8755 18.51V19.1396L58.8953 17.5026L59.0823 20.4617L52.1644 22.8541V14.7324Z" fill="white"/>
<path d="M61.4194 10.0105L64.3174 8.68834V12.0252L66.3741 11.0808L66.4675 7.55508L69.0851 6.2959L69.5525 16.2434L66.935 17.1249L66.748 14.1658L64.5978 15.0472V18.1322L61.6063 19.3914L61.4194 10.0105Z" fill="white"/>
<path fill-rule="evenodd" clip-rule="evenodd" d="M81.1446 3.39979L74.5072 0V0C74.8911 1.84686 73.9604 3.71641 72.2554 4.52333L71.7027 4.78489L71.9831 15.1102L75.1616 14.0399V10.5771L77.4987 9.56978L77.6857 12.9696V12.9696C83.8535 11.1722 90.5704 11.881 96.1956 14.9843V14.9843V14.9843C95.9665 11.628 93.8587 8.69005 90.7528 7.39769L81.1446 3.39979ZM75.3486 7.55509C75.2807 7.55509 75.2475 7.47248 75.2963 7.42546L76.2684 6.49024C76.4013 6.36233 76.5037 6.20609 76.5679 6.03314L77.3117 4.02938V4.02938C77.3914 3.97572 77.4987 4.03281 77.4987 4.12888V6.79958L75.3486 7.55509V7.55509ZM80.6986 4.69569C80.351 4.50839 79.9293 4.76017 79.9293 5.15505V5.2558C79.9293 5.39856 79.9818 5.53633 80.0767 5.64292L80.4573 6.07006C80.4792 6.09461 80.504 6.11632 80.5313 6.13469V6.13469C80.7927 6.31072 81.1446 6.12343 81.1446 5.8083V5.57797C81.1446 5.51157 81.1318 5.4458 81.1069 5.38426L80.9347 4.9592C80.8891 4.84654 80.8056 4.75334 80.6986 4.69569V4.69569ZM84.1202 7.74397C83.9643 7.74397 83.8281 7.63883 83.7886 7.48808L83.5632 6.62774C83.4698 6.27129 83.8675 5.98906 84.1731 6.1949V6.1949C84.2684 6.2591 84.3315 6.36125 84.3462 6.47524L84.4601 7.35731C84.4866 7.56233 84.3269 7.74397 84.1202 7.74397V7.74397ZM87.371 7.59132C87.1394 7.57182 86.9407 7.75454 86.9407 7.98695V8.68788C86.9407 8.87841 87.0563 9.04988 87.233 9.12126V9.12126C87.3453 9.16665 87.4709 9.16665 87.5832 9.12126L87.8755 9.00315L87.7312 7.93384C87.7063 7.74935 87.5565 7.60693 87.371 7.59132V7.59132ZM89.777 9.45714C89.7049 9.30466 89.755 9.12243 89.8949 9.02823V9.02823C90.0263 8.93976 90.2013 8.95329 90.3175 9.0609L90.6423 9.36168C90.7856 9.49436 90.867 9.68078 90.867 9.87606V10.0162C90.867 10.326 90.6159 10.5771 90.3061 10.5771V10.5771L89.777 9.45714Z" fill="#780000"/>
</svg>
